<svg width="32" height="32" viewBox="0 0 32 32" fill="none" xmlns="http://www.w3.org/2000/svg">
  <!-- Frame -->
  <rect x="2" y="2" width="28" height="28" rx="1" stroke="#1a1a1a" stroke-width="1.4" fill="none"/>
  <!-- Horizon -->
  <line x1="5" y1="16" x2="27" y2="16" stroke="#1a1a1a" stroke-width="1.6"/>
  <!-- Dotted island above -->
  <path d="M10 12 Q11 9.5 13.5 9 Q16 8.5 18.5 9 Q21 9.5 22 12 Q20.5 13 18.5 13.5 Q16 14 13.5 13.5 Q11 13 10 12 Z" stroke="#1a1a1a" stroke-width="1" stroke-dasharray="2 2" fill="none"/>
  <circle cx="16" cy="11" r="0.9" fill="#1B2A4A"/>
  <!-- Solid reflection below -->
  <path d="M10 20 Q11 22.5 13.5 23 Q16 23.5 18.5 23 Q21 22.5 22 20 Q20.5 19 18.5 18.5 Q16 18 13.5 18.5 Q11 19 10 20 Z" fill="#1a1a1a"/>
</svg>
