<svg width="32" height="32" viewBox="0 0 40 40" fill="none" xmlns="http://www.w3.org/2000/svg">
  <!-- Open book -->
  <line x1="14" y1="26" x2="14" y2="36" stroke="#1a1a1a" stroke-width="1.8"/>
  <path d="M14 26 Q8 27 5 29 L5 36 Q8 34 14 36" stroke="#1a1a1a" stroke-width="1.8" fill="none" stroke-linejoin="round"/>
  <path d="M14 26 Q20 27 23 29 L23 36 Q20 34 14 36" stroke="#1a1a1a" stroke-width="1.8" fill="none" stroke-linejoin="round"/>
  <!-- Arrow -->
  <path d="M17 26 Q22 20 26 16" stroke="#1a1a1a" stroke-width="1.2" fill="none" stroke-dasharray="2 2" opacity="0.5"/>
  <path d="M25 17.5 L26.5 15.5 L24 16" stroke="#1a1a1a" stroke-width="1.2" fill="none" stroke-linecap="round" stroke-linejoin="round" opacity="0.5"/>
  <!-- Thought bubble -->
  <ellipse cx="30" cy="10" rx="9" ry="8" stroke="#1a1a1a" stroke-width="1.8" fill="none"/>
  <circle cx="24" cy="16" r="1.2" stroke="#1a1a1a" stroke-width="0.8" fill="none"/>
  <circle cx="22" cy="19" r="0.7" stroke="#1a1a1a" stroke-width="0.6" fill="none"/>
  <!-- Island inside -->
  <path d="M25 10 Q26 8 28 7.5 Q30 7 32 7.5 Q34 8.5 35 10 Q34 11 32 11.5 Q30 12 28 11.5 Q26 11 25 10 Z" stroke="#1a1a1a" stroke-width="0.9" fill="none"/>
  <circle cx="30" cy="9.5" r="1" fill="#1B2A4A"/>
  <line x1="24" y1="13" x2="36" y2="13" stroke="#1a1a1a" stroke-width="0.4" opacity="0.2"/>
  <line x1="25" y1="14.5" x2="35" y2="14.5" stroke="#1a1a1a" stroke-width="0.4" opacity="0.2"/>
</svg>
