<svg width="32" height="32" viewBox="0 0 32 32" fill="none" xmlns="http://www.w3.org/2000/svg">
  <!-- Book outline -->
  <path d="M 5.5 8 Q 5 7.5 6 7.2 L 15.5 6.5 Q 16 7 16 8 L 16 25 M 16 25 L 16 8 Q 16 7 16.5 6.5 L 26 7.2 Q 27 7.5 26.5 8 L 26.5 24 Q 26 24.5 16 25 M 16 25 Q 6 24.5 5.5 24 L 5.5 8" stroke="#1a1a1a" stroke-width="1.1" fill="none" stroke-linecap="round" stroke-linejoin="round"/>
  <!-- Spine -->
  <line x1="16" y1="7" x2="16" y2="25" stroke="#1a1a1a" stroke-width="0.8" opacity="0.5"/>
  <!-- Left page ruled lines -->
  <line x1="7.5" y1="11" x2="14" y2="10.2" stroke="#1a1a1a" stroke-width="0.75" opacity="0.15"/>
  <line x1="7.5" y1="14" x2="14" y2="13.2" stroke="#1a1a1a" stroke-width="0.75" opacity="0.15"/>
  <line x1="7.5" y1="17" x2="14" y2="16.2" stroke="#1a1a1a" stroke-width="0.75" opacity="0.15"/>
  <!-- Island -->
  <path d="M 19.2 13.8 Q 19.5 12.5 20.5 11.8 Q 21.3 11.2 22.2 11 Q 23 10.9 23.6 11.3 Q 24.2 11.8 24.3 12.6 Q 24.3 13.4 23.8 14 Q 23.2 14.6 22.3 14.9 Q 21.2 15.2 20.2 14.8 Q 19.4 14.5 19.2 13.8 Z" stroke="#1a1a1a" stroke-width="1" fill="none" stroke-linejoin="round"/>
  <!-- Navy dot -->
  <circle cx="21.8" cy="12.8" r="0.9" fill="#1B2A4A"/>
  <!-- Water lines -->
  <line x1="18.5" y1="16.5" x2="25" y2="16.5" stroke="#1a1a1a" stroke-width="0.75" opacity="0.2"/>
  <line x1="19" y1="18" x2="24.5" y2="18" stroke="#1a1a1a" stroke-width="0.75" opacity="0.2"/>
  <!-- Compass -->
  <line x1="24.5" y1="19.5" x2="24.5" y2="22.5" stroke="#1a1a1a" stroke-width="0.75" opacity="0.3"/>
  <line x1="23" y1="21" x2="26" y2="21" stroke="#1a1a1a" stroke-width="0.75" opacity="0.3"/>
</svg>
