<svg width="32" height="32" viewBox="0 0 36 36" fill="none" xmlns="http://www.w3.org/2000/svg">
  <circle cx="16" cy="16" r="13" stroke="#1a1a1a" stroke-width="2.5" fill="none"/>
  <path d="M26.5 26.5 Q30 30 32 33" stroke="#1a1a1a" stroke-width="2.5" stroke-linecap="round" fill="none"/>
  <line x1="7" y1="20" x2="25" y2="20" stroke="#1a1a1a" stroke-width="0.6" opacity="0.15"/>
  <line x1="8" y1="22.5" x2="24" y2="22.5" stroke="#1a1a1a" stroke-width="0.6" opacity="0.15"/>
  <line x1="9.5" y1="25" x2="22.5" y2="25" stroke="#1a1a1a" stroke-width="0.6" opacity="0.15"/>
  <path d="M9 16.5 Q10 14 12 13.5 Q14 12.5 16 13 Q18 12.5 20 13.5 Q22 14.5 23 16 Q22.5 17 21 17.5 Q19 18.5 16.5 18 Q14 18.5 12 17.5 Q10 17 9 16.5 Z" stroke="#1a1a1a" stroke-width="1.2" fill="none"/>
  <circle cx="16" cy="15" r="1.3" fill="#1B2A4A"/>
</svg>
